# File created by Blade
# Date/Time:  Wed Jan 21 17:10:37 2015
# Frame Rate: 120.000 fps
#------------------------------------------------------
:FULLY-SPECIFIED
:DEGREES
757
root 19.731650 3.323917 -11.577330 -236.034373 4.298705 -186.036801
Spine 66.373893 5.716500 -10.495922
Head -11.741414 -6.859401 3.755166
LeftShoulder 13.429356 -28.852236 -13.102920
LeftArm 17.778102 25.818617 -68.277024
LeftForeArm -72.749479 0.000000 100.860319
LeftHand -1.798874 -0.000000 1.436340
LeftHandThumb1 -26.253704 0.000000 33.147579
RightShoulder 6.362956 10.025747 -26.374247
RightArm 68.236797 6.586012 8.895748
RightForeArm 2.960563 -0.000000 101.800211
RightHand -19.399426 -0.000000 2.211199
RightHandThumb1 -24.326973 -0.000000 -32.862282
LeftUpLeg -35.001891 32.390921 -3.057250
LeftLeg -1.561351 -0.000000 0.000000
LeftFoot 18.519606 35.660745 -1.063505
LeftToeBase 18.307968 -0.000000 -0.000000
RightUpLeg -112.326830 12.584433 74.909871
RightLeg 115.806074 -0.000000 -0.000000
RightFoot 14.822517 -45.962501 -10.166656
RightToeBase 3.607789 -0.000000 -0.000000
758
root 19.734914 3.325857 -11.578321 -236.048320 4.313055 -186.014191
Spine 66.376119 5.673149 -10.473026
Head -11.728616 -6.768612 3.711731
LeftShoulder 13.428767 -28.855827 -13.125759
LeftArm 17.705736 25.827405 -68.264082
LeftForeArm -72.780281 0.000000 100.914321
LeftHand -1.750928 -0.000000 1.400219
LeftHandThumb1 -26.253704 0.000000 33.147579
RightShoulder 6.346008 10.014493 -26.401771
RightArm 68.297964 6.648302 8.838358
RightForeArm 2.771228 -0.000000 101.829511
RightHand -19.196091 -0.000000 2.524621
RightHandThumb1 -24.326973 -0.000000 -32.862282
LeftUpLeg -34.975480 32.369293 -3.005806
LeftLeg -1.560253 -0.000000 0.000000
LeftFoot 18.536979 35.655751 -1.058411
LeftToeBase 18.286592 -0.000000 -0.000000
RightUpLeg -112.304618 12.602183 74.995553
RightLeg 115.954875 -0.000000 -0.000000
RightFoot 16.042076 -45.619862 -10.701194
RightToeBase 3.666159 -0.000000 -0.000000
759
root 19.737076 3.326414 -11.579633 -236.049011 4.311311 -185.980276
Spine 66.370437 5.608974 -10.466058
Head -11.733946 -6.675777 3.691370
LeftShoulder 13.403498 -28.856996 -13.130952
LeftArm 17.625242 25.812084 -68.277892
LeftForeArm -72.732456 0.000000 100.964569
LeftHand -1.952827 -0.000000 1.290226
LeftHandThumb1 -26.253704 0.000000 33.147579
RightShoulder 6.316996 10.077971 -26.424965
RightArm 68.374800 6.636120 8.766082
RightForeArm 2.516295 -0.000000 101.914417
RightHand -19.017570 -0.000000 2.720610
RightHandThumb1 -24.326973 -0.000000 -32.862282
LeftUpLeg -34.975590 32.337334 -2.985442
LeftLeg -1.549954 -0.000000 0.000000
LeftFoot 18.544013 35.631858 -1.006238
LeftToeBase 18.320305 -0.000000 -0.000000
RightUpLeg -112.309350 12.633276 75.070015
RightLeg 116.090579 -0.000000 -0.000000
RightFoot 17.105969 -45.362375 -11.139527
RightToeBase 3.731352 -0.000000 -0.000000
760
root 19.738661 3.328246 -11.579870 -236.060981 4.309799 -185.966749
Spine 66.374733 5.586192 -10.444369
Head -11.739528 -6.613003 3.693776
LeftShoulder 13.406815 -28.858081 -13.150763
LeftArm 17.561420 25.806565 -68.284152
LeftForeArm -72.641695 0.000000 101.012657
LeftHand -2.068290 -0.000000 1.243229
LeftHandThumb1 -26.253704 0.000000 33.147579
RightShoulder 6.270038 10.079212 -26.442037
RightArm 68.449032 6.665093 8.678095
RightForeArm 2.085273 -0.000000 102.050934
RightHand -18.794348 -0.000000 2.890542
RightHandThumb1 -24.326973 -0.000000 -32.862282
LeftUpLeg -34.945811 32.308980 -2.956845
LeftLeg -1.563587 -0.000000 0.000000
LeftFoot 18.571404 35.627684 -1.002384
LeftToeBase 18.287796 -0.000000 -0.000000
RightUpLeg -112.305545 12.654078 75.149002
RightLeg 116.214231 -0.000000 -0.000000
RightFoot 18.156354 -45.200522 -11.439929
RightToeBase 3.957024 -0.000000 -0.000000
761
root 19.738100 3.328651 -11.580140 -236.063693 4.305610 -185.963945
Spine 66.368341 5.547177 -10.444539
Head -11.731373 -6.491516 3.695393
LeftShoulder 13.366226 -28.868136 -13.157223
LeftArm 17.517610 25.827960 -68.283823
LeftForeArm -72.557288 -0.000000 101.048067
LeftHand -2.133366 -0.000000 1.244022
LeftHandThumb1 -26.253704 0.000000 33.147579
RightShoulder 6.214304 10.093548 -26.496590
RightArm 68.565122 6.688081 8.642531
RightForeArm 1.572534 0.000000 102.154832
RightHand -18.517308 -0.000000 3.023892
RightHandThumb1 -24.326973 -0.000000 -32.862282
LeftUpLeg -34.955541 32.306351 -2.987358
LeftLeg -1.589522 -0.000000 0.000000
LeftFoot 18.540482 35.752949 -1.041965
LeftToeBase 18.340093 -0.000000 -0.000000
RightUpLeg -112.309950 12.666105 75.175632
RightLeg 116.287850 -0.000000 -0.000000
RightFoot 19.467366 -45.095503 -12.084419
RightToeBase 4.267900 -0.000000 -0.000000
762
root 19.739082 3.329047 -11.581086 -236.070451 4.288152 -185.956324
Spine 66.351345 5.528830 -10.440952
Head -11.710920 -6.419525 3.730856
LeftShoulder 13.301682 -28.829142 -13.136387
LeftArm 17.639112 25.935062 -68.232207
LeftForeArm -72.647452 0.000000 100.896717
LeftHand -1.763747 -0.000000 1.122796
LeftHandThumb1 -26.253704 0.000000 33.147579
RightShoulder 6.172643 10.045980 -26.510513
RightArm 68.667724 6.783028 8.621257
RightForeArm 0.986262 -0.000000 102.279490
RightHand -18.257267 -0.000000 3.227181
RightHandThumb1 -24.326973 -0.000000 -32.862282
LeftUpLeg -34.946782 32.302814 -3.006284
LeftLeg -1.603114 -0.000000 0.000000
LeftFoot 18.560777 35.691868 -1.021103
LeftToeBase 18.342423 -0.000000 -0.000000
RightUpLeg -112.322449 12.690803 75.211983
RightLeg 116.407928 -0.000000 -0.000000
RightFoot 21.067093 -44.598869 -13.235286
RightToeBase 5.533020 -0.000000 -0.000000
763
root 19.741744 3.328713 -11.582400 -236.072187 4.269316 -185.961178
Spine 66.304672 5.545597 -10.431525
Head -11.638880 -6.409214 3.797878
LeftShoulder 13.278301 -28.746687 -13.118169
LeftArm 17.743599 25.997741 -68.167427
LeftForeArm -72.449370 -0.000000 100.845052
LeftHand -1.697235 -0.000000 1.209863
LeftHandThumb1 -26.253704 0.000000 33.147579
RightShoulder 6.168206 10.036972 -26.495639
RightArm 68.692396 6.819661 8.599725
RightForeArm 0.528519 0.000000 102.402831
RightHand -18.009065 -0.000000 3.361004
RightHandThumb1 -24.326973 -0.000000 -32.862282
LeftUpLeg -34.926138 32.265541 -2.987417
LeftLeg -1.595285 -0.000000 0.000000
LeftFoot 18.560710 35.642783 -1.012973
LeftToeBase 18.364253 -0.000000 -0.000000
RightUpLeg -112.341699 12.734514 75.267300
RightLeg 116.523226 -0.000000 -0.000000
RightFoot 22.780867 -44.090907 -13.999102
RightToeBase 6.732999 -0.000000 -0.000000
764
root 19.738041 3.329627 -11.583423 -236.084653 4.225076 -185.941788
Spine 66.292391 5.493378 -10.428417
Head -11.594108 -6.374884 3.821684
LeftShoulder 13.275274 -28.769252 -13.167187
LeftArm 17.693094 26.084973 -68.118338
LeftForeArm -72.753430 0.000000 100.885369
LeftHand -1.587851 -0.000000 1.405719
LeftHandThumb1 -26.253704 0.000000 33.147579
RightShoulder 6.153624 10.036029 -26.507625
RightArm 68.740125 6.882191 8.610016
RightForeArm 0.161107 -0.000000 102.461639
RightHand -17.726282 -0.000000 3.496991
RightHandThumb1 -24.326973 -0.000000 -32.862282
LeftUpLeg -34.911311 32.221858 -3.021507
LeftLeg -1.598406 -0.000000 0.000000
LeftFoot 18.530356 35.611262 -1.035188
LeftToeBase 18.390383 -0.000000 -0.000000
RightUpLeg -112.431415 12.744456 75.289808
RightLeg 116.621276 -0.000000 -0.000000
RightFoot 24.620725 -43.773391 -14.368036
RightToeBase 6.950338 -0.000000 -0.000000
